<svg width="79" height="22" viewBox="0 0 79 22" fill="none" xmlns="http://www.w3.org/2000/svg">
<g clip-path="url(#clip0_2034_5228)">
<path d="M15.576 18.8428H12.4955V21.9295H15.576V18.8428Z" fill="#191919" fill-opacity="0.4"/>
<path d="M14.5676 10.9347C14.1779 10.0302 13.6342 9.22512 12.9499 8.53946C12.2665 7.85545 11.463 7.31074 10.5603 6.91941C9.64266 6.52227 8.64477 6.3208 7.59475 6.3208C6.54474 6.3208 5.57332 6.52144 4.64825 6.91692C3.73807 7.30659 2.92552 7.84882 2.23461 8.53117C1.53791 9.21848 0.986008 10.0268 0.595457 10.933C0.199114 11.8517 -0.00195312 12.8524 -0.00195312 13.9054C-0.00195312 14.9583 0.198287 15.9317 0.592147 16.8569C0.981871 17.7731 1.53129 18.5906 2.22468 19.2853C2.9189 19.981 3.73393 20.5323 4.64659 20.922C5.57084 21.3175 6.56211 21.5181 7.5931 21.5181H12.0828V18.4314H7.5931C6.97169 18.4314 6.40324 18.3178 5.85548 18.0832C5.29779 17.8452 4.82284 17.5243 4.4025 17.1032C3.98299 16.6828 3.66277 16.2069 3.42447 15.6473C3.1903 15.0992 3.07694 14.5297 3.07694 13.907C3.07694 13.2844 3.18948 12.6974 3.42199 12.1585C3.6578 11.6104 3.97554 11.1445 4.3934 10.7316C4.81539 10.3162 5.29282 9.997 5.85548 9.75657C6.40407 9.52193 6.97169 9.40835 7.59227 9.40835C8.21285 9.40835 8.7995 9.52193 9.33651 9.75325C9.88758 9.99203 10.3567 10.3087 10.7688 10.7216C11.1809 11.1353 11.4978 11.6054 11.7361 12.1576C11.9678 12.6965 12.0811 13.2678 12.0811 13.9062V18.4314H15.1617V13.9062C15.1617 12.8541 14.9606 11.8542 14.5643 10.9347H14.5651H14.5676Z" fill="#191919" fill-opacity="0.4"/>
<path d="M7.50992 10.996C6.46321 11.1817 5.42229 11.5581 4.85302 12.437C4.49887 12.9676 4.34662 13.5389 4.17534 14.1673C4.0595 13.7395 4.05123 13.286 4.15135 12.8391C4.45254 11.3865 6.06108 10.5715 7.50992 10.9952V10.996Z" fill="#191919" fill-opacity="0.4"/>
<path d="M25.8764 6.27632V9.37961H24.3108C23.6621 9.37961 23.0531 9.50149 22.4847 9.74607C21.9162 9.98983 21.4181 10.3264 20.9887 10.7567C20.5592 11.187 20.2233 11.687 19.98 12.2557C19.7359 12.8253 19.6143 13.4355 19.6143 14.0856V21.9304H16.4833V14.0856C16.4833 12.9936 16.686 11.9763 17.0923 11.0345C17.4977 10.0935 18.0612 9.26852 18.7794 8.55881C19.4976 7.85077 20.3333 7.29279 21.2841 6.88487C22.2348 6.47862 23.2434 6.27466 24.3117 6.27466H25.8772L25.8755 6.27632H25.8764Z" fill="#191919" fill-opacity="0.4"/>
<path d="M29.9125 0V21.9304H26.8154V0H29.9125Z" fill="#191919" fill-opacity="0.4"/>
<path d="M43.3084 16.4218L45.5002 18.6181L44.4221 19.6984C43.6799 20.4421 42.8326 21.0117 41.8819 21.4063C40.9295 21.8026 39.9341 22 38.8898 22C37.8456 22 36.8485 21.8026 35.8978 21.4063C34.9454 21.0117 34.0998 20.4421 33.3576 19.6984C32.5922 18.9315 32.0229 18.0659 31.6531 17.1009C31.2815 16.1366 31.0962 15.155 31.0962 14.1551C31.0962 13.1552 31.2815 12.1802 31.6531 11.2267C32.0246 10.2741 32.5922 9.4135 33.3576 8.64741C34.123 7.8805 34.9868 7.30428 35.9499 6.92124C36.9123 6.5382 37.8919 6.34668 38.8898 6.34668C39.8877 6.34668 40.8674 6.5382 41.8297 6.92124C42.792 7.30428 43.6559 7.87967 44.4221 8.64741L45.5002 9.72772L36.837 18.4083C37.7182 18.8502 38.6515 18.9962 39.6378 18.8444C40.6241 18.6944 41.4863 18.2467 42.2302 17.5013L43.3084 16.421V16.4227V16.4218ZM35.5486 10.8089C34.6203 11.7391 34.1577 12.8542 34.1577 14.1559C34.1577 14.8772 34.3191 15.5629 34.6451 16.2129C34.9231 15.9335 35.3467 15.5098 35.9144 14.9411C36.482 14.3723 37.0844 13.7671 37.724 13.1278C38.3619 12.4886 38.9767 11.8784 39.5683 11.298C40.1591 10.7177 40.6184 10.2641 40.9427 9.93831C40.0615 9.49641 39.1281 9.34634 38.1418 9.48563C37.1555 9.62492 36.2917 10.0677 35.5495 10.8105V10.8089H35.5486Z" fill="#191919" fill-opacity="0.4"/>
<path d="M47.1526 11.0699C47.5581 10.1289 48.1149 9.30392 48.8232 8.59421C49.5299 7.88617 50.3589 7.32819 51.3113 6.92027C52.2621 6.51402 53.2707 6.31006 54.3389 6.31006C55.4071 6.31006 56.4439 6.51319 57.3839 6.92027C58.3239 7.32736 59.1521 7.88534 59.872 8.59421C60.5902 9.30392 61.1529 10.1289 61.5591 11.0699C61.9646 12.0109 62.1681 13.029 62.1681 14.121V21.9658H59.071V14.121C59.071 13.4709 58.9494 12.8607 58.7053 12.2911C58.462 11.7216 58.1244 11.2224 57.6967 10.7921C57.2672 10.3618 56.7633 10.0252 56.1833 9.78147C55.6024 9.53772 54.9876 9.41501 54.3389 9.41501C53.6902 9.41501 53.0812 9.53689 52.5128 9.78147C51.9443 10.0252 51.4462 10.3635 51.0168 10.7921C50.5873 11.2224 50.2514 11.7224 50.0081 12.2911C49.7648 12.8599 49.6424 13.4709 49.6424 14.121V21.9658H46.5453V14.121C46.5453 13.029 46.748 12.0117 47.1543 11.0699H47.1526Z" fill="#191919" fill-opacity="0.4"/>
<path d="M78.5202 6.31006C77.2211 8.07603 76.0023 9.77401 74.8663 11.4007C74.3789 12.098 73.8799 12.8019 73.3702 13.5099C72.8605 14.2196 72.3732 14.9036 71.9098 15.5669C71.4448 16.2302 71.0046 16.8462 70.5876 17.4149C70.1697 17.9845 69.8222 18.4671 69.5433 18.8617H78.833V21.965H63.4882C64.7632 20.199 65.9821 18.5011 67.1421 16.8744C67.6295 16.1771 68.1342 15.4749 68.6555 14.7652C69.1768 14.0571 69.6699 13.3714 70.135 12.7082C70.5983 12.0449 71.0402 11.4305 71.4572 10.8601C71.8751 10.2905 72.2226 9.80801 72.5014 9.41336H63.2118V6.31006H78.521H78.5202Z" fill="#191919" fill-opacity="0.4"/>
</g>
<defs>
<clipPath id="clip0_2034_5228">
<rect width="78.8333" height="21.9561" fill="white"/>
</clipPath>
</defs>
</svg>
