<svg width="15" height="14" viewBox="0 0 15 14" fill="none" xmlns="http://www.w3.org/2000/svg">
<path fill-rule="evenodd" clip-rule="evenodd" d="M0.9375 0C1.18614 0 1.4246 0.0987719 1.60041 0.274587C1.77623 0.450403 1.875 0.68886 1.875 0.9375V9.0625H11.8L10.5875 7.85C10.4219 7.67228 10.3317 7.43722 10.336 7.19435C10.3403 6.95147 10.4387 6.71974 10.6105 6.54797C10.7822 6.37621 11.014 6.27782 11.2568 6.27353C11.4997 6.26925 11.7348 6.3594 11.9125 6.525L14.725 9.3375C14.9006 9.51328 14.9992 9.75156 14.9992 10C14.9992 10.2484 14.9006 10.4867 14.725 10.6625L11.9125 13.475C11.8267 13.5671 11.7232 13.641 11.6082 13.6922C11.4932 13.7435 11.369 13.771 11.2432 13.7732C11.1173 13.7755 10.9922 13.7523 10.8755 13.7052C10.7588 13.658 10.6527 13.5878 10.5637 13.4988C10.4747 13.4098 10.4045 13.3037 10.3573 13.187C10.3102 13.0703 10.287 12.9452 10.2893 12.8193C10.2915 12.6935 10.319 12.5693 10.3703 12.4543C10.4215 12.3393 10.4954 12.2358 10.5875 12.15L11.8 10.9375H0.9375C0.68886 10.9375 0.450403 10.8387 0.274587 10.6629C0.0987719 10.4871 0 10.2486 0 10V0.9375C0 0.68886 0.0987719 0.450403 0.274587 0.274587C0.450403 0.0987719 0.68886 0 0.9375 0Z" fill="#191919"/>
</svg>
