<svg width="77" height="24" viewBox="0 0 77 24" fill="none" xmlns="http://www.w3.org/2000/svg">
<path d="M17.4983 22.5665C17.4983 22.9495 17.8088 23.26 18.1918 23.26C18.5748 23.26 18.8853 22.9495 18.8853 22.5665H18.1918H17.4983ZM0.203081 4.57778C-0.067759 4.84862 -0.067759 5.28774 0.203081 5.55858C0.473922 5.82942 0.913041 5.82942 1.18388 5.55858L0.693481 5.06818L0.203081 4.57778ZM5.06806 0.693604L5.45276 0.116551C5.17769 -0.0668284 4.81142 -0.0305609 4.57766 0.203204L5.06806 0.693604ZM23.0568 5.55858C23.3276 5.28774 23.3276 4.84862 23.0568 4.57778C22.7859 4.30694 22.3468 4.30694 22.076 4.57778L22.5664 5.06818L23.0568 5.55858ZM0.203081 8.95236C-0.067759 9.2232 -0.067759 9.66232 0.203081 9.93316C0.473922 10.204 0.913041 10.204 1.18388 9.93316L0.693481 9.44276L0.203081 8.95236ZM5.06806 5.06818L5.45276 4.49113C5.17769 4.30775 4.81142 4.34402 4.57766 4.57778L5.06806 5.06818ZM18.1918 13.8173L17.8071 14.3944C18.0822 14.5778 18.4484 14.5415 18.6822 14.3077L18.1918 13.8173ZM23.0568 9.93316C23.3276 9.66232 23.3276 9.2232 23.0568 8.95236C22.7859 8.68152 22.3468 8.68152 22.076 8.95236L22.5664 9.44276L23.0568 9.93316ZM0.203081 13.3269C-0.067759 13.5978 -0.067759 14.0369 0.203081 14.3077C0.473922 14.5786 0.913041 14.5786 1.18388 14.3077L0.693481 13.8173L0.203081 13.3269ZM5.06806 9.44276L5.45276 8.8657C5.17769 8.68232 4.81142 8.71859 4.57766 8.95236L5.06806 9.44276ZM18.1918 18.1919L17.8071 18.769C18.0822 18.9523 18.4484 18.9161 18.6822 18.6823L18.1918 18.1919ZM23.0568 14.3077C23.3276 14.0369 23.3276 13.5978 23.0568 13.3269C22.7859 13.0561 22.3468 13.0561 22.076 13.3269L22.5664 13.8173L23.0568 14.3077ZM5.76159 0.70454C5.76159 0.321514 5.45108 0.0110096 5.06806 0.0110096C4.68503 0.0110096 4.37453 0.321514 4.37453 0.70454H5.06806H5.76159ZM4.37453 18.1919C4.37453 18.5749 4.68503 18.8854 5.06806 18.8854C5.45108 18.8854 5.76159 18.5749 5.76159 18.1919H5.06806H4.37453ZM18.1918 9.44276H17.4983V22.5665H18.1918H18.8853V9.44276H18.1918ZM0.693481 5.06818L1.18388 5.55858L5.55846 1.184L5.06806 0.693604L4.57766 0.203204L0.203081 4.57778L0.693481 5.06818ZM5.06806 0.693604L4.68336 1.27066L17.8071 10.0198L18.1918 9.44276L18.5765 8.8657L5.45276 0.116551L5.06806 0.693604ZM18.1918 9.44276L18.6822 9.93316L23.0568 5.55858L22.5664 5.06818L22.076 4.57778L17.7014 8.95236L18.1918 9.44276ZM0.693481 9.44276L1.18388 9.93316L5.55846 5.55858L5.06806 5.06818L4.57766 4.57778L0.203081 8.95236L0.693481 9.44276ZM5.06806 5.06818L4.68336 5.64523L17.8071 14.3944L18.1918 13.8173L18.5765 13.2403L5.45276 4.49113L5.06806 5.06818ZM18.1918 13.8173L18.6822 14.3077L23.0568 9.93316L22.5664 9.44276L22.076 8.95236L17.7014 13.3269L18.1918 13.8173ZM0.693481 13.8173L1.18388 14.3077L5.55846 9.93316L5.06806 9.44276L4.57766 8.95236L0.203081 13.3269L0.693481 13.8173ZM5.06806 9.44276L4.68336 10.0198L17.8071 18.769L18.1918 18.1919L18.5765 17.6149L5.45276 8.8657L5.06806 9.44276ZM18.1918 18.1919L18.6822 18.6823L23.0568 14.3077L22.5664 13.8173L22.076 13.3269L17.7014 17.7015L18.1918 18.1919ZM5.06806 0.70454H4.37453V18.1919H5.06806H5.76159V0.70454H5.06806Z" fill="#191919" fill-opacity="0.4"/>
<path d="M30.9683 15.7551C30.2934 15.7551 29.6601 15.6301 29.0685 15.3802C28.4852 15.1218 27.9728 14.7677 27.5312 14.3178C27.0979 13.8595 26.7562 13.3262 26.5063 12.7179C26.2646 12.1096 26.1438 11.4514 26.1438 10.7431C26.1438 10.0432 26.2646 9.39323 26.5063 8.79329C26.7562 8.18502 27.0979 7.6559 27.5312 7.20594C27.9728 6.74765 28.4852 6.38936 29.0685 6.13105C29.6518 5.87274 30.2851 5.74359 30.9683 5.74359C31.6099 5.74359 32.1599 5.82691 32.6182 5.99356C33.0848 6.16021 33.5514 6.43518 34.018 6.81848C34.0847 6.86848 34.1347 6.92264 34.168 6.98097C34.2097 7.03096 34.2347 7.08512 34.243 7.14345C34.2597 7.19344 34.268 7.25594 34.268 7.33093C34.268 7.48925 34.2097 7.62257 34.093 7.73089C33.9847 7.83088 33.8514 7.88921 33.6931 7.90588C33.5347 7.91421 33.3806 7.86005 33.2306 7.74339C32.9223 7.47675 32.6015 7.2726 32.2682 7.13095C31.9432 6.9893 31.5099 6.91847 30.9683 6.91847C30.4767 6.91847 30.0143 7.01846 29.581 7.21844C29.1477 7.41842 28.7644 7.6934 28.4311 8.04336C28.1061 8.39333 27.852 8.80162 27.6686 9.26824C27.4853 9.72653 27.3937 10.2182 27.3937 10.7431C27.3937 11.2764 27.4853 11.7763 27.6686 12.243C27.852 12.7012 28.1061 13.1054 28.4311 13.4553C28.7644 13.8053 29.1477 14.0803 29.581 14.2803C30.0143 14.4719 30.4767 14.5677 30.9683 14.5677C31.3933 14.5677 31.7932 14.4969 32.1682 14.3553C32.5515 14.2053 32.9181 14.0011 33.2681 13.7428C33.4181 13.6345 33.5639 13.5887 33.7056 13.6053C33.8555 13.6137 33.9805 13.672 34.0805 13.7803C34.1805 13.8803 34.2305 14.0219 34.2305 14.2053C34.2305 14.2886 34.2138 14.3719 34.1805 14.4552C34.1472 14.5302 34.0972 14.6011 34.0305 14.6677C33.5806 15.026 33.0973 15.2968 32.5807 15.4801C32.0724 15.6635 31.5349 15.7551 30.9683 15.7551ZM35.4222 15.6301C35.1889 15.6301 35.0097 15.5301 34.8847 15.3302C34.7598 15.1302 34.7473 14.9177 34.8472 14.6927L38.3594 6.30603C38.4844 6.01439 38.6885 5.86857 38.9718 5.86857C39.2718 5.86857 39.476 6.01439 39.5843 6.30603L43.1089 14.7177C43.2006 14.951 43.1839 15.1635 43.059 15.3552C42.9423 15.5385 42.7631 15.6301 42.5215 15.6301C42.3965 15.6301 42.2757 15.5968 42.159 15.5301C42.0507 15.4551 41.9716 15.3552 41.9216 15.2302L38.8219 7.53091H39.1718L36.0221 15.2302C35.9638 15.3635 35.8763 15.4635 35.7597 15.5301C35.6513 15.5968 35.5388 15.6301 35.4222 15.6301ZM36.0846 13.4803L36.5846 12.4054H41.4841L41.9841 13.4803H36.0846ZM46.4467 15.6301C46.1801 15.6301 45.9843 15.4926 45.8593 15.2177L42.1971 6.84348C42.0805 6.56017 42.068 6.32686 42.1596 6.14355C42.2513 5.96023 42.4263 5.86857 42.6846 5.86857C42.9762 5.86857 43.1762 5.99773 43.2845 6.25604L46.4967 13.9678H46.3592L49.6339 6.25604C49.7006 6.10605 49.7756 6.00606 49.8589 5.95606C49.9505 5.89774 50.0714 5.86857 50.2213 5.86857C50.4713 5.86857 50.6421 5.96023 50.7338 6.14355C50.8338 6.31853 50.8338 6.51434 50.7338 6.73099L47.0342 15.2177C46.9758 15.351 46.8967 15.4551 46.7967 15.5301C46.705 15.5968 46.5884 15.6301 46.4467 15.6301ZM50.5462 15.6301C50.3129 15.6301 50.1338 15.5301 50.0088 15.3302C49.8838 15.1302 49.8713 14.9177 49.9713 14.6927L53.4834 6.30603C53.6084 6.01439 53.8126 5.86857 54.0959 5.86857C54.3958 5.86857 54.6 6.01439 54.7083 6.30603L58.233 14.7177C58.3246 14.951 58.308 15.1635 58.183 15.3552C58.0663 15.5385 57.8872 15.6301 57.6455 15.6301C57.5205 15.6301 57.3997 15.5968 57.2831 15.5301C57.1747 15.4551 57.0956 15.3552 57.0456 15.2302L53.9459 7.53091H54.2958L51.1462 15.2302C51.0878 15.3635 51.0003 15.4635 50.8837 15.5301C50.7754 15.5968 50.6629 15.6301 50.5462 15.6301ZM51.2086 13.4803L51.7086 12.4054H56.6081L57.1081 13.4803H51.2086ZM59.8594 15.6301C59.6761 15.6301 59.5219 15.5676 59.3969 15.4426C59.2803 15.3177 59.2219 15.1635 59.2219 14.9802V6.51851C59.2219 6.33519 59.2844 6.18104 59.4094 6.05606C59.5344 5.93107 59.6844 5.86857 59.8594 5.86857C60.0427 5.86857 60.1968 5.93107 60.3218 6.05606C60.4468 6.18104 60.5093 6.33519 60.5093 6.51851V14.3303H65.0339C65.2172 14.3303 65.3713 14.3927 65.4963 14.5177C65.6213 14.6427 65.6838 14.7969 65.6838 14.9802C65.6838 15.1635 65.6213 15.3177 65.4963 15.4426C65.3713 15.5676 65.2172 15.6301 65.0339 15.6301H59.8594ZM70.3745 15.7551C69.6412 15.7551 68.9704 15.6343 68.3622 15.3926C67.7539 15.1427 67.2289 14.7969 66.7873 14.3553C66.354 13.9053 66.0166 13.3762 65.7749 12.7679C65.5333 12.1513 65.4124 11.4764 65.4124 10.7431C65.4124 10.0098 65.5333 9.33907 65.7749 8.7308C66.0166 8.12252 66.354 7.59757 66.7873 7.15595C67.2289 6.70599 67.7539 6.36019 68.3622 6.11855C68.9704 5.86857 69.6412 5.74359 70.3745 5.74359C71.1077 5.74359 71.7743 5.86857 72.3743 6.11855C72.9825 6.36019 73.5075 6.70599 73.9491 7.15595C74.3907 7.59757 74.7324 8.12252 74.974 8.7308C75.2157 9.33907 75.3365 10.0098 75.3365 10.7431C75.3365 11.4764 75.2157 12.1513 74.974 12.7679C74.7324 13.3762 74.3907 13.9053 73.9491 14.3553C73.5075 14.7969 72.9825 15.1427 72.3743 15.3926C71.7743 15.6343 71.1077 15.7551 70.3745 15.7551ZM70.3745 14.5802C70.9161 14.5802 71.4119 14.4844 71.8618 14.2928C72.3201 14.0928 72.7159 13.822 73.0492 13.4803C73.3825 13.1304 73.6367 12.7221 73.8116 12.2555C73.9949 11.7888 74.0866 11.2847 74.0866 10.7431C74.0866 10.2015 73.9949 9.69737 73.8116 9.23075C73.6367 8.76413 73.3825 8.36 73.0492 8.01836C72.7159 7.6684 72.3201 7.39759 71.8618 7.20594C71.4119 7.0143 70.9161 6.91847 70.3745 6.91847C69.8329 6.91847 69.3329 7.0143 68.8746 7.20594C68.4247 7.39759 68.033 7.6684 67.6997 8.01836C67.3748 8.36 67.1206 8.76413 66.9373 9.23075C66.754 9.69737 66.6623 10.2015 66.6623 10.7431C66.6623 11.2847 66.754 11.7888 66.9373 12.2555C67.1206 12.7221 67.3748 13.1304 67.6997 13.4803C68.033 13.822 68.4247 14.0928 68.8746 14.2928C69.3329 14.4844 69.8329 14.5802 70.3745 14.5802Z" fill="#191919" fill-opacity="0.4"/>
</svg>
