<svg width="86" height="20" viewBox="0 0 86 20" fill="none" xmlns="http://www.w3.org/2000/svg">
<mask id="path-1-inside-1_2034_5195" fill="white">
<path d="M9.80468 0C8.10923 -2.0218e-08 6.44275 0.439652 4.96796 1.27603C3.49316 2.11241 2.26045 3.31693 1.39018 4.77198C0.519918 6.22704 0.0418381 7.8829 0.002623 9.5779C-0.0365921 11.2729 0.364397 12.9491 1.16644 14.4428C1.96848 15.9366 3.14417 17.1968 4.57871 18.1005C6.01325 19.0042 7.65761 19.5205 9.35124 19.5989C11.0449 19.6773 12.7299 19.3152 14.2418 18.5479C15.7537 17.7806 17.0408 16.6344 17.9774 15.2211L16.0673 13.9552C15.3496 15.0382 14.3633 15.9165 13.2048 16.5045C12.0462 17.0924 10.755 17.3699 9.45722 17.3098C8.15941 17.2497 6.89936 16.8541 5.8001 16.1617C4.70083 15.4692 3.79992 14.5035 3.18533 13.3588C2.57073 12.2142 2.26346 10.9298 2.29351 9.6309C2.32356 8.33205 2.68991 7.06319 3.35678 5.9482C4.02365 4.83321 4.96826 3.91021 6.09837 3.26931C7.22848 2.6284 8.50548 2.2915 9.80468 2.2915V0Z"/>
</mask>
<path d="M9.80468 0C8.10923 -2.0218e-08 6.44275 0.439652 4.96796 1.27603C3.49316 2.11241 2.26045 3.31693 1.39018 4.77198C0.519918 6.22704 0.0418381 7.8829 0.002623 9.5779C-0.0365921 11.2729 0.364397 12.9491 1.16644 14.4428C1.96848 15.9366 3.14417 17.1968 4.57871 18.1005C6.01325 19.0042 7.65761 19.5205 9.35124 19.5989C11.0449 19.6773 12.7299 19.3152 14.2418 18.5479C15.7537 17.7806 17.0408 16.6344 17.9774 15.2211L16.0673 13.9552C15.3496 15.0382 14.3633 15.9165 13.2048 16.5045C12.0462 17.0924 10.755 17.3699 9.45722 17.3098C8.15941 17.2497 6.89936 16.8541 5.8001 16.1617C4.70083 15.4692 3.79992 14.5035 3.18533 13.3588C2.57073 12.2142 2.26346 10.9298 2.29351 9.6309C2.32356 8.33205 2.68991 7.06319 3.35678 5.9482C4.02365 4.83321 4.96826 3.91021 6.09837 3.26931C7.22848 2.6284 8.50548 2.2915 9.80468 2.2915V0Z" stroke="#191919" stroke-opacity="0.4" stroke-width="3.92187" stroke-linejoin="round" mask="url(#path-1-inside-1_2034_5195)"/>
<line x1="3.22467" y1="9.77832" x2="16.4184" y2="9.77832" stroke="#191919" stroke-opacity="0.4" stroke-width="0.0869176"/>
<line x1="9.8139" y1="16.3823" x2="9.8139" y2="3.18862" stroke="#191919" stroke-opacity="0.4" stroke-width="0.0869176"/>
<line x1="4.04918" y1="12.9774" x2="15.5887" y2="6.58094" stroke="#191919" stroke-opacity="0.4" stroke-width="0.0869176"/>
<line x1="13.0141" y1="15.5589" x2="6.61762" y2="4.01944" stroke="#191919" stroke-opacity="0.4" stroke-width="0.0869176"/>
<line x1="6.31928" y1="15.3761" x2="13.3109" y2="4.18725" stroke="#191919" stroke-opacity="0.4" stroke-width="0.0869176"/>
<line x1="15.4114" y1="13.2878" x2="4.22246" y2="6.29624" stroke="#191919" stroke-opacity="0.4" stroke-width="0.0869176"/>
<path d="M23.6486 0V19.3731H21.4162V0H23.6486Z" fill="#191919" fill-opacity="0.4"/>
<path d="M32.0132 19.7136C31.0925 19.7136 30.2569 19.5402 29.5065 19.1934C28.756 18.8402 28.16 18.3325 27.7186 17.6704C27.2772 17.0019 27.0564 16.1947 27.0564 15.2487C27.0564 14.4163 27.2204 13.7415 27.5483 13.2244C27.8763 12.701 28.3146 12.2911 28.8632 11.9947C29.4119 11.6983 30.0173 11.4775 30.6794 11.3325C31.3479 11.1811 32.0195 11.0613 32.6943 10.973C33.5772 10.8595 34.293 10.7744 34.8416 10.7176C35.3966 10.6546 35.8002 10.5505 36.0524 10.4055C36.311 10.2604 36.4403 10.0082 36.4403 9.64871V9.57303C36.4403 8.63969 36.1849 7.91446 35.6741 7.39734C35.1695 6.88022 34.4033 6.62166 33.3754 6.62166C32.3096 6.62166 31.474 6.855 30.8686 7.32167C30.2632 7.78833 29.8375 8.28654 29.5916 8.81627L27.4727 8.05951C27.851 7.17662 28.3555 6.48923 28.9862 5.99733C29.6231 5.49913 30.3168 5.15228 31.0673 4.95679C31.824 4.75498 32.5682 4.65408 33.2997 4.65408C33.7664 4.65408 34.3024 4.71084 34.9078 4.82435C35.5195 4.93156 36.1092 5.15544 36.6768 5.49598C37.2506 5.83652 37.7268 6.35049 38.1051 7.03788C38.4835 7.72527 38.6727 8.646 38.6727 9.80006V19.3731H36.4403V17.4055H36.3268C36.1754 17.7208 35.9232 18.0582 35.57 18.4177C35.2168 18.7771 34.747 19.083 34.1605 19.3353C33.574 19.5875 32.8583 19.7136 32.0132 19.7136ZM32.3538 17.7082C33.2367 17.7082 33.9808 17.5348 34.5862 17.1879C35.1979 16.8411 35.6583 16.3933 35.9673 15.8447C36.2826 15.296 36.4403 14.719 36.4403 14.1136V12.0703C36.3457 12.1839 36.1376 12.2879 35.8159 12.3825C35.5006 12.4708 35.1349 12.5496 34.7186 12.619C34.3087 12.6821 33.9083 12.7388 33.5173 12.7893C33.1326 12.8334 32.8204 12.8712 32.5808 12.9028C32.0006 12.9785 31.4583 13.1014 30.9538 13.2717C30.4556 13.4357 30.0519 13.6848 29.7429 14.019C29.4402 14.3469 29.2889 14.7947 29.2889 15.3623C29.2889 16.1379 29.5758 16.7244 30.1497 17.1217C30.7299 17.5127 31.4646 17.7082 32.3538 17.7082Z" fill="#191919" fill-opacity="0.4"/>
<path d="M42.7474 19.3731V4.84327H44.9042V7.03788H45.0555C45.3204 6.31896 45.7997 5.73562 46.4934 5.28787C47.1871 4.84012 47.9691 4.61624 48.8393 4.61624C49.0033 4.61624 49.2083 4.6194 49.4542 4.6257C49.7001 4.63201 49.8862 4.64147 50.0123 4.65408V6.92437C49.9366 6.90545 49.7632 6.87707 49.492 6.83923C49.2272 6.79509 48.9465 6.77301 48.6501 6.77301C47.9438 6.77301 47.3132 6.92121 46.7582 7.21761C46.2096 7.5077 45.7745 7.91131 45.4528 8.42843C45.1375 8.93924 44.9799 9.52258 44.9799 10.1784V19.3731H42.7474Z" fill="#191919" fill-opacity="0.4"/>
<path d="M61.8154 13.4325V4.84327H64.0479V19.3731H61.8154V16.9136H61.6641C61.3235 17.6515 60.7938 18.2789 60.0749 18.7961C59.356 19.3069 58.4478 19.5623 57.3505 19.5623C56.4424 19.5623 55.6352 19.3636 54.9289 18.9663C54.2226 18.5627 53.6676 17.9573 53.264 17.1501C52.8604 16.3366 52.6586 15.3118 52.6586 14.0758V4.84327H54.8911V13.9244C54.8911 14.9839 55.1875 15.8289 55.7803 16.4596C56.3794 17.0902 57.1424 17.4055 58.0695 17.4055C58.6244 17.4055 59.1888 17.2636 59.7627 16.9798C60.3429 16.696 60.8285 16.2609 61.2195 15.6744C61.6168 15.0879 61.8154 14.3406 61.8154 13.4325Z" fill="#191919" fill-opacity="0.4"/>
<path d="M78.4287 8.09735L76.4233 8.66492C76.2972 8.33068 76.1111 8.0059 75.8652 7.69059C75.6255 7.36896 75.2976 7.1041 74.8814 6.89599C74.4652 6.68788 73.9323 6.58382 73.2827 6.58382C72.3935 6.58382 71.6525 6.78878 71.0597 7.19869C70.4733 7.6023 70.18 8.11626 70.18 8.74059C70.18 9.29555 70.3818 9.73384 70.7854 10.0555C71.189 10.3771 71.8197 10.6451 72.6773 10.8595L74.8341 11.3893C76.1332 11.7046 77.1012 12.187 77.7382 12.8366C78.3751 13.4798 78.6936 14.3091 78.6936 15.3244C78.6936 16.1569 78.4539 16.901 77.9746 17.5569C77.5017 18.2127 76.8395 18.7298 75.9882 19.1082C75.1368 19.4866 74.1467 19.6758 73.0179 19.6758C71.5359 19.6758 70.3093 19.3542 69.3381 18.7109C68.3669 18.0677 67.7521 17.128 67.4935 15.892L69.6124 15.3623C69.8142 16.1442 70.1958 16.7307 70.757 17.1217C71.3246 17.5127 72.0656 17.7082 72.98 17.7082C74.0206 17.7082 74.8467 17.4875 75.4584 17.046C76.0764 16.5983 76.3855 16.0623 76.3855 15.4379C76.3855 14.9334 76.2089 14.5109 75.8557 14.1704C75.5026 13.8235 74.9602 13.5649 74.2287 13.3947L71.807 12.8271C70.4764 12.5118 69.4989 12.023 68.8746 11.3609C68.2566 10.6924 67.9476 9.85682 67.9476 8.85411C67.9476 8.03428 68.1777 7.30905 68.6381 6.67842C69.1048 6.04778 69.7386 5.55274 70.5395 5.19327C71.3467 4.83381 72.2611 4.65408 73.2827 4.65408C74.7206 4.65408 75.8494 4.9694 76.6692 5.60003C77.4954 6.23067 78.0819 7.06311 78.4287 8.09735Z" fill="#191919" fill-opacity="0.4"/>
<path d="M83.6811 19.5244C83.2144 19.5244 82.814 19.3573 82.4797 19.0231C82.1455 18.6889 81.9784 18.2884 81.9784 17.8217C81.9784 17.3551 82.1455 16.9546 82.4797 16.6204C82.814 16.2861 83.2144 16.119 83.6811 16.119C84.1478 16.119 84.5482 16.2861 84.8825 16.6204C85.2167 16.9546 85.3838 17.3551 85.3838 17.8217C85.3838 18.1307 85.305 18.4145 85.1473 18.6731C84.996 18.9316 84.791 19.1398 84.5325 19.2974C84.2802 19.4488 83.9964 19.5244 83.6811 19.5244Z" fill="#191919" fill-opacity="0.4"/>
</svg>
