<svg width="97" height="22" viewBox="0 0 97 22" fill="none" xmlns="http://www.w3.org/2000/svg">
<path d="M93.7582 15.0065C94.4572 15.7309 95.0191 16.5618 95.444 17.4992C95.5702 17.7776 95.3593 18.0833 95.0536 18.0833H91.2772C91.1314 18.0833 90.9962 18.0098 90.9096 17.8924C90.816 17.7655 90.7174 17.6439 90.6137 17.5276C89.5517 16.3456 88.2034 15.7545 86.5689 15.7545C84.9343 15.7545 83.5952 16.3409 82.5517 17.5138C81.7583 18.4046 81.2639 19.6285 81.0684 21.1855C81.0402 21.4101 80.8522 21.5833 80.6258 21.5833H77.2399C76.9865 21.5833 76.7855 21.3685 76.8106 21.1164C77.0615 18.5939 77.927 16.5619 79.4072 15.0204C81.1896 13.1734 83.5722 12.2499 86.555 12.2499C89.5748 12.2499 91.9759 13.1688 93.7582 15.0065Z" fill="#191919" fill-opacity="0.4"/>
<path d="M78.1172 4.08325C77.8115 4.08325 77.6006 4.38886 77.7268 4.66731C78.1517 5.60473 78.7136 6.43563 79.4126 7.15999C81.1949 8.99772 83.596 9.91658 86.6158 9.91658C89.5986 9.91658 91.9812 8.9931 93.7635 7.14614C95.2437 5.60458 96.1093 3.57258 96.3602 1.05013C96.3853 0.798038 96.1842 0.583252 95.9309 0.583252H92.545C92.3186 0.583252 92.1306 0.756378 92.1024 0.981012C91.9069 2.53798 91.4125 3.76189 90.6191 4.65273C89.5755 5.82556 88.2365 6.41197 86.6019 6.41197C84.9674 6.41197 83.6191 5.82094 82.5571 4.63888C82.4534 4.52256 82.3547 4.40097 82.2612 4.27409C82.1746 4.15671 82.0394 4.08325 81.8936 4.08325H78.1172Z" fill="#191919" fill-opacity="0.4"/>
<path d="M4.2 10.3334C4.2 10.6556 4.46117 10.9167 4.78333 10.9167H10.8967C11.2188 10.9167 11.48 11.1779 11.48 11.5001V13.8334C11.48 14.1556 11.2188 14.4167 10.8967 14.4167H4.78333C4.46117 14.4167 4.2 14.6779 4.2 15.0001V16.9601C4.2 17.2822 4.46117 17.5434 4.78333 17.5434H12.2033C12.5255 17.5434 12.7867 17.8046 12.7867 18.1267V20.8411C12.7867 21.1633 12.5255 21.4245 12.2033 21.4245H0.583333C0.261167 21.4245 0 21.1633 0 20.8411V4.50008C0 4.17792 0.261167 3.91675 0.583333 3.91675H12.0633C12.3855 3.91675 12.6467 4.17792 12.6467 4.50008V7.13675C12.6467 7.45891 12.3855 7.72008 12.0633 7.72008H4.78333C4.46117 7.72008 4.2 7.98125 4.2 8.30341V10.3334Z" fill="#191919" fill-opacity="0.4"/>
<path d="M15.235 21.3468C14.9129 21.3468 14.6517 21.0856 14.6517 20.7634V4.50008C14.6517 4.17792 14.9129 3.91675 15.235 3.91675H18.5118C18.7219 3.91675 18.9157 4.02968 19.0193 4.2124L24.6766 14.1918C24.6818 14.201 24.6916 14.2067 24.7022 14.2067C24.7185 14.2067 24.7317 14.1935 24.7317 14.1773V4.50008C24.7317 4.17791 24.9929 3.91675 25.315 3.91675H28.3468C28.6696 3.91675 28.931 4.17887 28.9301 4.50164L28.8866 20.765C28.8857 21.0865 28.6248 21.3468 28.3033 21.3468H25.0262C24.8155 21.3468 24.6211 21.2331 24.5178 21.0493L18.9068 11.0718C18.9016 11.0625 18.8918 11.0567 18.8811 11.0567C18.8649 11.0567 18.8517 11.0699 18.8517 11.0862V20.7634C18.8517 21.0856 18.5905 21.3468 18.2684 21.3468H15.235Z" fill="#191919" fill-opacity="0.4"/>
<path d="M30.2611 4.6724C30.1451 4.29712 30.4256 3.91675 30.8184 3.91675H34.0335C34.299 3.91675 34.5309 4.09591 34.598 4.3527L37.6282 15.9575C37.6317 15.9708 37.6437 15.9801 37.6575 15.9801C37.6712 15.9801 37.6832 15.9708 37.6867 15.9575L40.7397 4.35168C40.8071 4.09539 41.0388 3.91675 41.3038 3.91675H44.4965C44.8893 3.91675 45.1698 4.29712 45.0538 4.6724L40.0012 21.0134C39.9256 21.2578 39.6997 21.4245 39.4439 21.4245H35.871C35.6152 21.4245 35.3893 21.2578 35.3137 21.0134L30.2611 4.6724Z" fill="#191919" fill-opacity="0.4"/>
<path d="M53.179 21.3468C47.8824 21.3468 44.919 17.6601 44.919 12.6201C44.919 7.60341 47.8824 3.91675 53.179 3.91675C58.429 3.91675 61.439 7.60341 61.439 12.6201C61.439 17.6601 58.429 21.3468 53.179 21.3468ZM53.179 17.9167C56.2124 17.9167 57.239 15.5367 57.239 12.6201C57.239 9.72675 56.2124 7.34675 53.179 7.34675C50.1224 7.34675 49.119 9.72675 49.119 12.6201C49.119 15.5367 50.1224 17.9167 53.179 17.9167Z" fill="#191919" fill-opacity="0.4"/>
<path d="M60.9306 4.76293C60.7347 4.37494 61.0167 3.91675 61.4513 3.91675H64.5543C64.7866 3.91675 64.9967 4.05456 65.0893 4.26759L68.0707 11.1284C68.0764 11.1416 68.0894 11.1501 68.1038 11.1501C68.1178 11.1501 68.1306 11.1419 68.1365 11.1292L71.3365 4.25393C71.4323 4.04826 71.6385 3.91675 71.8654 3.91675H74.9615C75.4003 3.91675 75.682 4.3829 75.478 4.77133L70.2703 14.686C70.2264 14.7697 70.2034 14.8628 70.2034 14.9573V20.7634C70.2034 21.0856 69.9423 21.3468 69.6201 21.3468H66.5868C66.2646 21.3468 66.0034 21.0856 66.0034 20.7634V14.9523C66.0034 14.861 65.982 14.771 65.9409 14.6894L60.9306 4.76293Z" fill="#191919" fill-opacity="0.4"/>
</svg>
