<svg width="96" height="18" viewBox="0 0 96 18" fill="none" xmlns="http://www.w3.org/2000/svg">
<path d="M4.43221 7.4855H11.4991V11.1051H4.43221V17.6057H0V0H13.0996V3.61963H4.43221V7.4855Z" fill="white"/>
<path d="M19.7912 8.49506C19.7912 7.75636 19.2741 7.31314 18.1907 7.31314C16.7625 7.31314 16.0731 7.85485 15.95 9.0614H12.2565C12.3796 6.64831 14.1032 4.60457 18.2153 4.60457C21.7611 4.60457 23.731 5.98348 23.731 9.94784V15.7343C23.731 16.3992 23.9772 16.67 24.4697 16.67V17.6057C23.6817 17.9012 22.9676 17.9997 22.1797 17.9997C20.4068 17.9997 19.9143 17.1625 19.9143 16.276H19.8651C19.0525 17.2117 17.5751 17.9997 15.9007 17.9997C13.2414 17.9997 11.764 16.4977 11.764 14.38C11.764 11.8685 13.6108 10.7112 16.5656 10.1202C18.1907 9.8001 19.7912 9.55386 19.7912 8.49506ZM17.2796 15.2911C18.9786 15.2911 19.7912 14.2077 19.7912 13.0011V11.4745C19.2988 11.6715 18.6832 11.8438 17.7721 12.0408C16.2208 12.3856 15.7037 13.0258 15.7037 13.8137C15.7037 14.8479 16.3193 15.2911 17.2796 15.2911Z" fill="white"/>
<path d="M32.6134 4.60457C35.9622 4.60457 38.1045 7.1654 38.1045 11.3021C38.1045 15.4388 35.9622 17.9997 32.6134 17.9997C30.7913 17.9997 29.4617 17.0147 28.9692 16.3499H28.9199V17.6057H24.9802V0H28.9199V6.25433H28.9692C29.4617 5.5895 30.7913 4.60457 32.6134 4.60457ZM31.5793 15.0449C33.1798 15.0449 34.1647 13.7645 34.1647 11.3021C34.1647 8.83979 33.1798 7.55937 31.5793 7.55937C29.9788 7.55937 28.9938 8.83979 28.9938 11.3021C28.9938 13.7645 29.9788 15.0449 31.5793 15.0449Z" fill="white"/>
<path d="M43.1496 7.4855H50.2165V11.1051H43.1496V17.6057H38.7174V0H51.817V3.61963H43.1496V7.4855Z" fill="white"/>
<path d="M57.373 17.9997C53.1624 17.9997 50.6262 15.2172 50.6262 11.3021C50.6262 7.38701 53.1624 4.60457 57.373 4.60457C61.559 4.60457 64.0952 7.38701 64.0952 11.3021C64.0952 15.2172 61.559 17.9997 57.373 17.9997ZM57.373 15.0449C59.0966 15.0449 60.1554 13.7398 60.1554 11.3021C60.1554 8.86441 59.0966 7.55937 57.373 7.55937C55.6247 7.55937 54.5659 8.86441 54.5659 11.3021C54.5659 13.7398 55.6247 15.0449 57.373 15.0449Z" fill="white"/>
<path d="M72.642 4.99854H76.5817V17.6057H72.642V15.7836H72.5927C71.9279 16.9409 70.6967 17.9997 68.456 17.9997C66.0183 17.9997 64.3685 16.3992 64.3685 13.5182V4.99854H68.3083V12.2624C68.3083 14.1584 68.9731 14.7986 70.2781 14.7986C71.7802 14.7986 72.642 14.0353 72.642 12.2871V4.99854Z" fill="white"/>
<path d="M84.592 4.77693C84.9367 4.77693 85.2322 4.77693 85.6754 4.87543V8.3227H85.6262C83.6071 7.95335 81.4649 9.0614 81.4649 11.7453V17.6057H77.5251V4.99854H81.4649V7.0669H81.5141C82.1297 5.66337 83.2131 4.77693 84.592 4.77693Z" fill="white"/>
<path d="M93.8439 7.4855H100.911V11.1051H93.8439V17.6057H89.4117V0H102.511V3.61963H93.8439V7.4855Z" fill="white"/>
<path d="M108.067 17.9997C103.857 17.9997 101.321 15.2172 101.321 11.3021C101.321 7.38701 103.857 4.60457 108.067 4.60457C112.253 4.60457 114.789 7.38701 114.789 11.3021C114.789 15.2172 112.253 17.9997 108.067 17.9997ZM108.067 15.0449C109.791 15.0449 110.85 13.7398 110.85 11.3021C110.85 8.86441 109.791 7.55937 108.067 7.55937C106.319 7.55937 105.26 8.86441 105.26 11.3021C105.26 13.7398 106.319 15.0449 108.067 15.0449Z" fill="white"/>
<path d="M123.336 4.99854H127.276V17.6057H123.336V15.7836H123.287C122.622 16.9409 121.391 17.9997 119.15 17.9997C116.713 17.9997 115.063 16.3992 115.063 13.5182V4.99854H119.003V12.2624C119.003 14.1584 119.667 14.7986 120.972 14.7986C122.474 14.7986 123.336 14.0353 123.336 12.2871V4.99854Z" fill="white"/>
<path d="M136.345 4.60457C138.783 4.60457 140.433 6.20509 140.433 9.08602V17.6057H136.493V10.3418C136.493 8.44581 135.828 7.80561 134.523 7.80561C133.021 7.80561 132.159 8.56893 132.159 10.3172V17.6057H128.219V4.99854H132.159V6.82067H132.208C132.873 5.66337 134.104 4.60457 136.345 4.60457Z" fill="white"/>
<path d="M149.896 0H153.835V17.6057H149.896V16.3499H149.846C149.354 17.0147 148.024 17.9997 146.202 17.9997C142.853 17.9997 140.711 15.4388 140.711 11.3021C140.711 7.1654 142.853 4.60457 146.202 4.60457C148.024 4.60457 149.354 5.5895 149.846 6.25433H149.896V0ZM147.236 15.0449C148.837 15.0449 149.822 13.7645 149.822 11.3021C149.822 8.83979 148.837 7.55937 147.236 7.55937C145.636 7.55937 144.651 8.83979 144.651 11.3021C144.651 13.7645 145.636 15.0449 147.236 15.0449Z" fill="white"/>
<path d="M162.205 8.49506C162.205 7.75636 161.688 7.31314 160.604 7.31314C159.176 7.31314 158.487 7.85485 158.363 9.0614H154.67C154.793 6.64831 156.517 4.60457 160.629 4.60457C164.175 4.60457 166.144 5.98348 166.144 9.94784V15.7343C166.144 16.3992 166.391 16.67 166.883 16.67V17.6057C166.095 17.9012 165.381 17.9997 164.593 17.9997C162.82 17.9997 162.328 17.1625 162.328 16.276H162.279C161.466 17.2117 159.989 17.9997 158.314 17.9997C155.655 17.9997 154.177 16.4977 154.177 14.38C154.177 11.8685 156.024 10.7112 158.979 10.1202C160.604 9.8001 162.205 9.55386 162.205 8.49506ZM159.693 15.2911C161.392 15.2911 162.205 14.2077 162.205 13.0011V11.4745C161.712 11.6715 161.097 11.8438 160.186 12.0408C158.634 12.3856 158.117 13.0258 158.117 13.8137C158.117 14.8479 158.733 15.2911 159.693 15.2911Z" fill="white"/>
<path d="M174.343 7.95335H172.152V13.1735C172.152 14.6017 172.669 14.6017 174.343 14.6017V17.5565C173.629 17.7042 173.014 17.8273 171.906 17.8273C169.025 17.8273 168.212 16.3007 168.212 13.469V7.95335H166.464V4.99854H168.212V1.4774H172.152V4.99854H174.343V7.95335Z" fill="white"/>
<path d="M176.771 3.49652C175.663 3.49652 174.801 2.90556 174.801 1.74826C174.801 0.615583 175.663 0 176.771 0C177.879 0 178.741 0.615583 178.741 1.74826C178.741 2.90556 177.879 3.49652 176.771 3.49652ZM174.801 4.99854H178.741V17.6057H174.801V4.99854Z" fill="white"/>
<path d="M185.864 17.9997C181.653 17.9997 179.117 15.2172 179.117 11.3021C179.117 7.38701 181.653 4.60457 185.864 4.60457C190.05 4.60457 192.586 7.38701 192.586 11.3021C192.586 15.2172 190.05 17.9997 185.864 17.9997ZM185.864 15.0449C187.587 15.0449 188.646 13.7398 188.646 11.3021C188.646 8.86441 187.587 7.55937 185.864 7.55937C184.115 7.55937 183.057 8.86441 183.057 11.3021C183.057 13.7398 184.115 15.0449 185.864 15.0449Z" fill="white"/>
<path d="M201.083 4.60457C203.521 4.60457 205.171 6.20509 205.171 9.08602V17.6057H201.231V10.3418C201.231 8.44581 200.566 7.80561 199.261 7.80561C197.759 7.80561 196.897 8.56893 196.897 10.3172V17.6057H192.958V4.99854H196.897V6.82067H196.947C197.612 5.66337 198.843 4.60457 201.083 4.60457Z" fill="white"/>
<path d="M207.936 17.8273C206.754 17.8273 205.843 17.0147 205.843 15.7343C205.843 14.4785 206.754 13.6413 207.936 13.6413C209.094 13.6413 210.029 14.4785 210.029 15.7343C210.029 17.0147 209.094 17.8273 207.936 17.8273Z" fill="white"/>
</svg>
