<svg width="116" height="21" viewBox="0 0 116 21" fill="none" xmlns="http://www.w3.org/2000/svg">
<g clip-path="url(#clip0_2034_5166)">
<path d="M112.345 11.9677L107.624 12.3226V12.5305H115.062C115.062 10.2499 112.995 8.11628 110.186 8.02808V8.26538C111.697 8.38298 112.222 10.1029 112.345 11.9677ZM115.431 17.0623C114.723 18.0094 113.425 18.9586 111.142 18.9586C108.119 18.9586 106.482 16.3819 106.482 13.36C106.482 10.7245 107.532 8.62028 109.26 8.32418V8.08688C106.607 8.38298 103.86 10.9891 103.86 14.6032C103.86 18.2173 106.113 20.9431 109.969 20.9431C113.24 20.9431 115.062 18.484 115.585 17.1799L115.429 17.0623H115.431Z" fill="white"/>
<path d="M8.30346 17.1827V2.19287H2.53284V2.43017C4.63065 2.66747 5.27815 3.37727 5.27815 5.86577V17.1827C5.27815 19.6712 4.63065 20.381 2.53284 20.6183V20.8556H11.6656V20.6183C9.2594 20.381 8.30127 19.6712 8.30127 17.1827H8.30346ZM18.2085 2.19287H10.1847V2.43017C11.4491 2.45957 13.5163 2.93417 14.2885 3.23027C16.2944 3.97157 17.6528 5.12657 18.331 7.94057H18.5781L18.2085 2.19287ZM10.2788 11.3174V11.5547C13.2406 11.6135 14.4131 12.5921 14.9688 15.3179H15.216V7.55417H14.9688C14.4131 10.28 13.2406 11.2565 10.2788 11.3174Z" fill="white"/>
<path d="M54.9097 10.0128C54.9097 10.605 54.6319 11.109 54.0457 11.76L54.2316 11.9385C55.0957 11.1678 56.2376 10.2795 57.4407 9.6873C58.4601 9.1833 59.6326 8.8578 60.5272 8.7108V8.4735H53.3982V8.7108C54.4788 8.8599 54.9097 9.4227 54.9097 10.0149V10.0128ZM50.5894 17.892V4.1769C50.5894 2.9925 50.6507 1.2453 50.6813 0.0294L50.6201 0L46.2997 1.4805V1.659C46.5776 1.7766 46.8554 1.9551 47.1026 2.163C47.4416 2.4297 47.936 2.8434 47.936 3.8514V17.892C47.936 19.8765 47.6582 20.4099 45.9301 20.6178V20.8551H52.626V20.6178C50.9897 20.4099 50.5894 19.8177 50.5894 17.892ZM58.6744 19.3431C57.5938 18.4254 54.2316 14.0406 53.3063 12.4698L51.4863 14.2464C52.3504 15.6387 54.2951 18.3645 55.7147 19.8156C56.4563 20.5569 56.8872 20.9412 58.2457 20.9412C59.3263 20.9412 60.6519 20.9118 61.3016 20.853V20.6451C60.7766 20.5863 59.7594 20.2608 58.6788 19.341L58.6744 19.3431Z" fill="white"/>
<path d="M40.161 17.892V4.1769C40.161 2.9925 40.2223 1.2432 40.2529 0.0294L40.1938 0L35.8735 1.4805V1.659C36.1513 1.7766 36.4292 1.9551 36.6763 2.163C37.0154 2.4297 37.5098 2.8434 37.5098 3.8514V17.892C37.5098 19.8765 37.232 20.4099 35.5038 20.6178V20.8551H42.1998V20.6178C40.5635 20.4099 40.1632 19.8177 40.1632 17.892H40.161Z" fill="white"/>
<path d="M68.7874 17.892V4.1769C68.7874 2.9925 68.8487 1.2432 68.8793 0.0294L68.8181 0L64.4977 1.4805V1.659C64.7756 1.7766 65.0534 1.9551 65.3005 2.163C65.6396 2.4297 66.134 2.8434 66.134 3.8514V17.892C66.134 19.8765 65.8562 20.4099 64.1281 20.6178V20.8551H70.824V20.6178C69.1877 20.4099 68.7874 19.8177 68.7874 17.892Z" fill="white"/>
<path d="M26.7268 8.02808V8.26538C27.1906 8.29478 27.6215 8.38298 28.0853 8.62028C29.7215 9.44978 30.5856 11.4049 30.5856 14.4856C30.5856 16.678 30.1218 18.337 29.4437 19.2841C28.9187 20.0254 28.0853 20.5882 27.4378 20.6764V20.9137C30.0606 20.5588 33.4862 18.4546 33.4862 14.4562C33.4862 10.4578 30.369 8.08688 26.729 8.02808H26.7268ZM22.4984 14.4856C22.4984 12.2932 22.9622 10.546 23.6403 9.59678C24.1653 8.88488 24.874 8.38298 25.6462 8.29268V8.05538C23.0847 8.32208 19.5978 10.5439 19.5978 14.5423C19.5978 18.5407 22.715 20.8822 26.355 20.941V20.7037C25.924 20.6743 25.4603 20.4958 24.9965 20.2585C23.3603 19.429 22.4962 17.5621 22.4962 14.4814L22.4984 14.4856Z" fill="white"/>
<path d="M76.7851 14.4856C76.7851 12.2932 77.2489 10.546 77.927 9.59678C78.452 8.88488 79.1608 8.38298 79.933 8.29268V8.05538C77.3714 8.32208 73.8845 10.5439 73.8845 14.5423C73.8845 18.5407 77.0017 20.8822 80.6417 20.941V20.7037C80.2108 20.6743 79.747 20.4958 79.2833 20.2585C77.647 19.429 76.783 17.5621 76.783 14.4814L76.7851 14.4856ZM81.0136 8.02808V8.26538C81.4773 8.29478 81.9083 8.38298 82.372 8.62028C84.0083 9.44978 84.8723 11.4049 84.8723 14.4856C84.8723 16.678 84.4086 18.337 83.7305 19.2841C83.2055 20.0254 82.372 20.5882 81.7245 20.6764V20.9137C84.3473 20.5588 87.773 18.4546 87.773 14.4562C87.773 10.4578 84.6558 8.08688 81.0158 8.02808H81.0136Z" fill="white"/>
<path d="M95.4476 17.8626V8.14585L95.3863 8.11646L91.1579 9.62635V9.80485C91.4357 9.92245 91.7135 10.101 91.9607 10.3089C92.2998 10.5756 92.7941 10.9893 92.7941 11.9973V17.8626C92.7941 19.8471 92.5163 20.3805 90.7882 20.5884V20.8257H97.7926V20.5884C96.2198 20.4099 95.4476 19.9374 95.4476 17.8626ZM99.0898 8.14585C97.856 8.14585 96.6529 9.30086 96.2504 10.5462V10.6638C96.8366 9.59695 97.6088 9.27146 98.101 9.27146C98.1929 9.27146 98.3176 9.30085 98.3482 9.33025C98.1929 9.47935 98.0398 9.92245 98.0398 10.3089C98.0398 11.109 98.6566 11.6424 99.4901 11.6424C100.385 11.6424 101.096 11.0796 101.096 10.0128C101.096 8.88715 100.479 8.14585 99.0898 8.14585Z" fill="white"/>
<path d="M4.84094 17.4278H1.13094C0.809375 17.4278 0.336875 17.4131 0.00875 17.4047L0 17.4194L0.400312 18.4967H0.448437C0.48125 18.4274 0.529375 18.3581 0.584062 18.2972C0.65625 18.2132 0.767812 18.0893 1.04125 18.0893H4.84094C5.37906 18.0893 5.52125 18.1586 5.57812 18.5891H5.64156V16.9196H5.57812C5.52125 17.327 5.36156 17.4278 4.84094 17.4278ZM5.57812 14.7734C5.52125 15.2039 5.37687 15.2732 4.84094 15.2732H3.22875C2.62062 15.2732 2.21156 15.5357 2.21156 16.151C2.21156 16.5122 2.46094 16.9427 2.77375 17.1968H2.78906C2.71687 17.012 2.66 16.7894 2.66 16.5668C2.66 16.0817 2.93344 15.9368 3.37312 15.9368H4.84094C5.36156 15.9368 5.52125 16.0376 5.57812 16.445H5.64156V14.7755H5.57812V14.7734Z" fill="white"/>
<path d="M4.62444 11.8121L4.59163 11.8499C4.84757 12.0263 5.10569 12.3497 5.10569 12.9188C5.10569 13.6727 4.40788 14.0801 3.58976 14.0801C2.87663 14.0801 2.30788 13.8176 2.22694 13.3871H2.16351C2.24444 14.0486 2.94882 14.7332 3.92663 14.7332C4.90444 14.7332 5.64163 14.1725 5.64163 13.2086C5.64163 12.3938 4.97663 11.9381 4.62444 11.8079V11.8121ZM3.21351 12.6206L3.30976 13.7987H3.36663V11.9444C2.74976 11.9444 2.17226 12.461 2.14819 13.1603H2.21163C2.24444 12.7823 2.70819 12.6521 3.21351 12.6227V12.6206Z" fill="white"/>
<path d="M5.17771 18.7951H5.1449C5.17771 18.9106 5.21708 19.1332 5.21708 19.3642C5.21708 19.8178 4.9524 19.9564 4.53677 19.9564H2.53302V18.94L2.22896 18.856V19.9564H1.39552L1.37146 20.0257L2.45427 21.0421H2.53521V20.6179H4.7949C5.33958 20.6179 5.64365 20.4415 5.64365 19.8556C5.64365 19.3621 5.37021 18.9169 5.17771 18.793V18.7951Z" fill="white"/>
</g>
<defs>
<clipPath id="clip0_2034_5166">
<rect width="115.5" height="21" fill="white"/>
</clipPath>
</defs>
</svg>
