<svg width="63" height="21" viewBox="0 0 63 21" fill="none" xmlns="http://www.w3.org/2000/svg">
<path d="M0.00517845 0.294114C-0.0263072 0.142369 0.0895537 0 0.244531 0H5.05692C5.17351 0 5.27388 0.0823474 5.29666 0.196698L7.1597 9.55007C7.21196 9.81244 7.58716 9.8123 7.63922 9.5499L9.49495 0.197057C9.51765 0.082622 9.61806 0.000180476 9.73472 0.000180476H16.5555C16.6702 0.000180476 16.7694 0.0798497 16.7942 0.19178L18.8815 9.61767C18.9387 9.87609 19.3086 9.87193 19.3599 9.61228L21.2236 0.196987C21.2462 0.0825006 21.3467 0 21.4634 0H26.1689C26.3232 0 26.4389 0.141127 26.4086 0.292392L22.3507 20.5818C22.3279 20.6961 22.2275 20.7783 22.111 20.7783H16.0328C15.9168 20.7783 15.8167 20.6967 15.7934 20.5831L13.1815 7.86452C13.1781 7.84797 13.1635 7.83608 13.1466 7.83608C13.1297 7.83608 13.115 7.84808 13.1117 7.86475L10.5845 20.5815C10.5618 20.6959 10.4614 20.7783 10.3448 20.7783H4.45438C4.33851 20.7783 4.23856 20.697 4.21502 20.5835L0.00517845 0.294114Z" fill="#191919"/>
<path d="M54.8984 5.19358C54.8984 7.29767 54.0295 8.56142 52.7677 9.26896C52.5467 9.39289 52.58 9.81197 52.8186 9.89734C54.5231 10.5074 55.714 11.9751 55.714 14.6318C55.714 19.0597 52.8884 20.7784 48.5771 20.7784H34.3529C34.1981 20.7784 34.0823 20.6363 34.1135 20.4847L38.2828 0.195246C38.3062 0.0815808 38.4062 0 38.5223 0H48.3455C52.6859 0 54.8984 1.63967 54.8984 5.19358ZM41.665 8.0766C41.6348 8.22781 41.7505 8.3688 41.9047 8.3688H47.0332C48.4897 8.3688 49.6549 8.01923 49.6549 6.30054C49.6549 4.58184 48.4897 4.23228 47.0332 4.23228H42.6311C42.5145 4.23228 42.4141 4.31463 42.3914 4.42899L41.665 8.0766ZM41.1124 11.8561C40.9957 11.8561 40.8952 11.9386 40.8726 12.0531L40.0526 16.2044C40.0228 16.3555 40.1384 16.4962 40.2924 16.4962H47.1788C49.3636 16.4962 50.4706 15.9718 50.4706 14.0201C50.4706 12.0684 49.3636 11.8561 47.1788 11.8561H41.1124Z" fill="#191919"/>
<path d="M59.702 20.7961C58.3037 20.7961 57.2259 19.8348 57.2259 18.32C57.2259 16.8343 58.3037 15.8439 59.702 15.8439C61.0711 15.8439 62.178 16.8343 62.178 18.32C62.178 19.8348 61.0711 20.7961 59.702 20.7961Z" fill="#6B6B6B"/>
<path d="M34.6566 0.000179041C34.8107 0.000179041 34.9263 0.140994 34.8964 0.292136L30.8768 20.5816C30.8541 20.696 30.7537 20.7785 30.637 20.7785H26.003C25.8489 20.7785 25.7332 20.6377 25.7632 20.4865L29.7839 0.197112C29.8066 0.0826505 29.907 0.000179041 30.0237 0.000179041H34.6566Z" fill="#191919"/>
</svg>
