<svg width="76" height="22" viewBox="0 0 76 22" fill="none" xmlns="http://www.w3.org/2000/svg">
<g clip-path="url(#clip0_2034_5209)">
<mask id="mask0_2034_5209" style="mask-type:luminance" maskUnits="userSpaceOnUse" x="0" y="-1" width="76" height="23">
<path d="M75.9055 -0.000732422H0.00164795V21.9995H75.9055V-0.000732422Z" fill="white"/>
</mask>
<g mask="url(#mask0_2034_5209)">
<path d="M25.5211 5.38208H29.5963C30.1807 5.39056 30.7625 5.46566 31.33 5.60594C31.9825 5.76664 32.5809 6.09789 33.0633 6.56582C33.5851 7.05484 33.846 7.75799 33.846 8.6753C33.846 9.76206 33.4493 10.5053 32.6562 10.9049C31.8631 11.3045 30.7364 11.5056 29.2764 11.5082V11.2679C30.7254 11.2679 31.7323 11.3185 32.2971 11.4196C32.862 11.5208 33.245 11.7497 33.4464 12.1064C33.6489 12.4638 33.782 13.1008 33.846 14.0173L34.0219 16.5669H31.6259L31.45 13.801C31.4346 13.4249 31.3863 13.0508 31.3059 12.683C31.2781 12.5698 31.2277 12.4634 31.1577 12.3702C31.0877 12.277 30.9997 12.1988 30.8985 12.1405C30.6901 12.014 30.369 11.9571 29.9314 11.9571H27.8868V16.5669H25.5211V5.38208ZM30.5383 10.0412C30.8152 9.99187 31.0652 9.84463 31.2425 9.62632C31.402 9.41764 31.4841 9.10528 31.4841 8.6753C31.4841 8.24531 31.4044 7.92913 31.2452 7.71669C31.0699 7.4941 30.8194 7.34336 30.541 7.29302C30.1241 7.21394 29.7004 7.17919 29.2764 7.1893H27.8855V10.1448H29.2764C29.6995 10.1548 30.1226 10.12 30.5383 10.0412Z" fill="#191919" fill-opacity="0.4"/>
<path d="M37.5461 16.3859C36.9205 16.0826 36.3981 15.6019 36.044 15.0036C35.6544 14.3755 35.4602 13.5817 35.4611 12.6222C35.462 11.6628 35.6562 10.8618 36.044 10.2194C36.3984 9.6059 36.9226 9.10822 37.5538 8.78646C38.1584 8.48116 38.8261 8.32259 39.5036 8.3236C40.1547 8.31871 40.7972 8.47514 41.3736 8.77887C41.9702 9.10395 42.4564 9.59923 42.7707 10.2017C43.1289 10.8466 43.3077 11.6535 43.3068 12.6222V13.0535H37.8257C37.815 13.4221 37.8773 13.7891 38.0089 14.1335C38.1172 14.4092 38.3126 14.6419 38.5652 14.7962C38.8507 14.9543 39.1736 15.0317 39.4997 15.02C39.989 15.02 40.3495 14.9163 40.5781 14.7077C40.7854 14.5334 40.9381 14.3035 41.0181 14.045L43.3032 14.2043C43.2848 14.7131 43.0844 15.1984 42.7378 15.5714C42.3518 15.9868 41.8723 16.3045 41.3395 16.4984C40.7551 16.7197 40.1345 16.8308 39.5098 16.826C38.8302 16.8305 38.1587 16.6799 37.5461 16.3859ZM40.9816 10.8883C40.8533 10.6538 40.6591 10.4621 40.4227 10.337C40.1354 10.2004 39.8214 10.1295 39.5036 10.1295C39.1854 10.1295 38.8715 10.2004 38.5841 10.337C38.3469 10.4633 38.1504 10.6546 38.0178 10.8883C37.8892 11.1204 37.8227 11.3818 37.8257 11.6472H41.1649C41.1681 11.3829 41.1053 11.122 40.9816 10.8883Z" fill="#191919" fill-opacity="0.4"/>
<path d="M44.7456 8.57895H47.1114V16.5666H44.7456V8.57895ZM49.5391 10.4254C49.3147 10.2277 49.0238 10.122 48.7249 10.1294C48.4895 10.1242 48.2568 10.1803 48.0498 10.2923C47.8425 10.4043 47.6682 10.5683 47.5437 10.7681C47.2555 11.1939 47.1117 11.8334 47.1126 12.6866L46.6966 12.3666C46.6788 11.6212 46.7867 10.8781 47.0165 10.1687C47.1926 9.61735 47.5392 9.13634 48.0065 8.79522C48.4542 8.48072 49.019 8.32349 49.701 8.32349C50.4597 8.32349 51.072 8.57391 51.5381 9.0747C52.0042 9.57551 52.2387 10.3212 52.2411 11.3119V16.5666H49.8768V11.5674C49.8759 11.0033 49.7633 10.6227 49.5391 10.4254Z" fill="#191919" fill-opacity="0.4"/>
<path d="M54.1556 5.22266H56.7135V7.30049H54.1556V5.22266ZM54.2516 8.57909H56.6174V16.5667H54.2516V8.57909Z" fill="#191919" fill-opacity="0.4"/>
<path d="M65.4545 5.38208H67.8354L72.1014 16.5669H69.7205L66.3179 7.65217H66.9729L63.5691 16.5669H61.1882L65.4545 5.38208ZM63.7449 11.9584H69.5447V13.7643H63.7449V11.9584Z" fill="#191919" fill-opacity="0.4"/>
<path d="M73.5396 5.38208H75.9041V16.5669H73.5396V5.38208Z" fill="#191919" fill-opacity="0.4"/>
<path d="M20.4092 4.77597L18.5872 6.85256L15.942 4.52937C15.4632 4.10781 14.9996 3.89195 14.5512 3.88184C14.1027 3.87173 13.6479 4.03656 13.1868 4.37634C12.5864 4.85187 12.0356 5.38702 11.5431 5.97362L10.3153 7.36476C9.68098 8.08605 8.78618 8.52579 7.82772 8.5872C6.86925 8.64863 5.92564 8.32672 5.20447 7.6923L10.8944 1.22351C11.2084 0.866262 11.5897 0.57438 12.0164 0.364517C12.4432 0.154654 12.9072 0.0309238 13.3817 0.000390294C13.8563 -0.0301431 14.3323 0.0331184 14.7824 0.186563C15.2326 0.340006 15.6481 0.58063 16.0053 0.894691L14.4879 2.61464C15.2314 2.21627 15.9167 2.0506 16.5376 2.11763C17.2009 2.1935 17.8231 2.47826 18.3141 2.93081L20.4092 4.77597Z" fill="#191919" fill-opacity="0.4"/>
<path d="M5.06691 0.943115L7.06345 2.85657L4.6307 5.39602C4.18898 5.85637 3.95252 6.30829 3.92136 6.75176C3.89017 7.19524 4.03516 7.65896 4.35632 8.14291C4.8065 8.7625 5.31826 9.33495 5.88374 9.85146L7.22656 11.1389C7.56999 11.4679 7.8452 11.8614 8.03653 12.2968C8.22786 12.7323 8.33155 13.2012 8.34163 13.6767C8.35174 14.1522 8.26807 14.6251 8.09539 15.0683C7.92274 15.5114 7.66445 15.9163 7.33531 16.2596L1.11684 10.2992C0.4262 9.63406 0.0274447 8.72215 0.00800833 7.76342C-0.011428 6.80472 0.350041 5.87739 1.01316 5.18482L2.65691 6.76315C2.29149 6.00435 2.15114 5.31128 2.24851 4.69287C2.3521 4.03378 2.66198 3.42451 3.13362 2.95268L5.06691 0.943115Z" fill="#191919" fill-opacity="0.4"/>
<path d="M1.28467 17.4316L3.04603 15.3019L5.75695 17.5404C6.24926 17.9459 6.71749 18.1478 7.16174 18.1461C7.60598 18.1445 8.05568 17.9657 8.5109 17.6099C9.09752 17.1174 9.63258 16.5665 10.1079 15.9658L11.2927 14.533C11.9043 13.7924 12.7851 13.3252 13.7412 13.2341C14.6973 13.143 15.6504 13.4355 16.3908 14.0473L10.9044 20.6843C10.2928 21.4249 9.41202 21.8921 8.45593 21.9832C7.49983 22.0743 6.54674 21.7818 5.80626 21.17L7.26418 19.3994C6.53458 19.8206 5.85432 20.0077 5.23096 19.9597C4.56571 19.9033 3.93541 19.6376 3.43041 19.2009L1.28467 17.4316Z" fill="#191919" fill-opacity="0.4"/>
<path d="M17.4384 20.7097L15.2509 19.0176L17.4005 16.2353C17.7899 15.7294 17.9762 15.2547 17.9593 14.8112C17.9425 14.3678 17.7494 13.9243 17.3802 13.4808C16.8669 12.91 16.2972 12.3926 15.6796 11.9367L14.209 10.7984C13.4494 10.2109 12.9542 9.34563 12.8323 8.39295C12.7105 7.44027 12.9719 6.47819 13.5591 5.71826L20.3731 10.9882C20.7493 11.2791 21.0645 11.6412 21.3007 12.054C21.5369 12.4668 21.6894 12.9221 21.7497 13.3939C21.8099 13.8656 21.7766 14.3446 21.6517 14.8035C21.5268 15.2624 21.3128 15.6922 21.0218 16.0683L19.22 14.6696C19.6634 15.3871 19.872 16.0586 19.8459 16.6842C19.811 17.3513 19.5657 17.9901 19.1454 18.5091L17.4384 20.7097Z" fill="#191919" fill-opacity="0.4"/>
</g>
</g>
<defs>
<clipPath id="clip0_2034_5209">
<rect width="75.9038" height="22.0002" fill="white"/>
</clipPath>
</defs>
</svg>
