<svg width="83" height="65" viewBox="0 0 83 65" fill="none" xmlns="http://www.w3.org/2000/svg">
<path d="M58.3613 64.4683H64.3461L75.3568 1.47339H69.3715L58.3613 64.4683Z" fill="#B17F4A"/>
<path d="M77.9116 64.4683H81.5777C82.2648 64.4683 82.7995 63.8706 82.7227 63.1875L75.923 2.49749C75.8577 1.91409 75.3642 1.47339 74.7774 1.47339H71.1114C70.4242 1.47339 69.8895 2.07111 69.9663 2.75423L76.766 63.4442C76.8313 64.027 77.3248 64.4683 77.9116 64.4683Z" fill="#CA9E67"/>
<path opacity="0.28" d="M76.4439 17.9026C76.9861 17.8447 77.3821 17.3542 77.3242 16.812L76.264 6.85977C76.2061 6.31821 75.7155 5.92163 75.174 5.98008C74.6324 6.03796 74.2358 6.52854 74.2937 7.07068L75.3539 17.0229C75.4112 17.5645 75.9018 17.9605 76.4439 17.9026Z" fill="white"/>
<path opacity="0.28" d="M77.9644 32.5061C78.506 32.4482 78.9026 31.9577 78.8447 31.4155L77.7845 21.4633C77.7266 20.9217 77.236 20.5251 76.6945 20.5836C76.1529 20.6415 75.7563 21.1321 75.8142 21.6742L76.8744 31.6264C76.9317 32.168 77.4223 32.564 77.9644 32.5061Z" fill="white"/>
<path opacity="0.28" d="M81.9737 64.4632L81.9886 64.4615C82.5261 64.4042 82.9193 63.9171 82.862 63.3795L81.8 53.4124C81.7427 52.8748 81.2556 52.4817 80.7181 52.539L80.7032 52.5407C80.1656 52.598 79.7725 53.0851 79.8298 53.6227L80.8917 63.5898C80.949 64.1274 81.4356 64.5205 81.9737 64.4632Z" fill="white"/>
<path d="M1.6474 64.4682H4.28876C5.08879 64.4682 5.77363 63.8929 5.91118 63.1049L16.3459 3.40462C16.5219 2.39656 15.7465 1.47388 14.7235 1.47388H12.0822C11.2821 1.47388 10.5973 2.04926 10.4598 2.83725L0.0249905 62.5375C-0.150947 63.545 0.624441 64.4682 1.6474 64.4682Z" fill="#B17F4A"/>
<path d="M16.1317 64.4682H19.8166C20.4986 64.4682 21.0287 63.8751 20.9525 63.1977L14.1505 2.48939C14.0857 1.91114 13.5969 1.47388 13.0146 1.47388H9.32969C8.64771 1.47388 8.11761 2.06646 8.19383 2.74442L14.9958 63.4527C15.06 64.0304 15.5494 64.4682 16.1317 64.4682Z" fill="#CA9E67"/>
<path opacity="0.28" d="M14.6705 17.9026C15.2126 17.8447 15.6086 17.3542 15.5508 16.812L14.4905 6.85977C14.4327 6.31821 13.9421 5.92163 13.4005 5.98008C12.859 6.03796 12.4624 6.52854 12.5203 7.07068L13.5805 17.0229C13.6384 17.5645 14.1289 17.9605 14.6705 17.9026Z" fill="white"/>
<path opacity="0.28" d="M16.192 32.5061C16.7335 32.4482 17.1301 31.9577 17.0722 31.4155L16.012 21.4633C15.9541 20.9217 15.4636 20.5251 14.922 20.5836C14.3804 20.6415 13.9839 21.1321 14.0417 21.6742L15.102 31.6264C15.1598 32.168 15.6504 32.564 16.192 32.5061Z" fill="white"/>
<path opacity="0.28" d="M20.0558 64.4787L20.3595 64.446C20.818 64.3973 21.1527 63.9824 21.104 63.5239L20.0111 53.268C19.9624 52.8095 19.5475 52.4748 19.089 52.5235L18.7853 52.5556C18.3268 52.6043 17.9921 53.0192 18.0408 53.4777L19.1337 63.7337C19.1824 64.1927 19.5973 64.5274 20.0558 64.4787Z" fill="white"/>
<path d="M8.67927 9.00493H75.5506C76.8503 9.00493 77.9037 7.95159 77.9037 6.65182V2.35309C77.9037 1.05333 76.8503 0 75.5506 0H8.67927C7.3795 0 6.32617 1.05333 6.32617 2.35309V6.65182C6.32674 7.95159 7.38008 9.00493 8.67927 9.00493Z" fill="#FFED00"/>
<path d="M72.4194 9.00493H75.8825L74.1512 0H70.6875L72.4194 9.00493Z" fill="black"/>
<path d="M65.493 9.00493H68.9568L67.2249 0H63.7617L65.493 9.00493Z" fill="black"/>
<path d="M58.5663 9.00493H62.03L60.2981 0H56.835L58.5663 9.00493Z" fill="black"/>
<path d="M51.6401 9.00493H55.1032L53.3714 0H49.9082L51.6401 9.00493Z" fill="black"/>
<path d="M44.7133 9.00493H48.1765L46.4446 0H42.9814L44.7133 9.00493Z" fill="black"/>
<path d="M37.7856 9.00493H41.2488L39.5174 0H36.0537L37.7856 9.00493Z" fill="black"/>
<path d="M30.8588 9.00493H34.322L32.5907 0H29.127L30.8588 9.00493Z" fill="black"/>
<path d="M23.9325 9.00493H27.3962L25.6643 0H22.2012L23.9325 9.00493Z" fill="black"/>
<path d="M17.0057 9.00493H20.4695L18.7376 0H15.2744L17.0057 9.00493Z" fill="black"/>
<path d="M10.0795 9.00493H13.5427L11.8108 0H8.34766L10.0795 9.00493Z" fill="black"/>
<path d="M11.6699 30.949H77.9584C78.9876 30.949 79.8221 30.1146 79.8221 29.0853V24.0043C79.8221 22.975 78.9876 22.1406 77.9584 22.1406H11.6699C10.6407 22.1406 9.80566 22.975 9.80566 24.0043V29.0847C9.80566 30.1146 10.6407 30.949 11.6699 30.949Z" fill="#FFED00"/>
<path d="M74.4577 30.949H77.8452L76.1518 22.1406H72.7637L74.4577 30.949Z" fill="black"/>
<path d="M67.6823 30.949H71.0698L69.3758 22.1406H65.9883L67.6823 30.949Z" fill="black"/>
<path d="M60.906 30.949H64.2941L62.6 22.1406H59.2119L60.906 30.949Z" fill="black"/>
<path d="M54.1296 30.949H57.5177L55.8236 22.1406H52.4355L54.1296 30.949Z" fill="black"/>
<path d="M47.3552 30.949H50.7427L49.0492 22.1406H45.6611L47.3552 30.949Z" fill="black"/>
<path d="M40.5788 30.949H43.9663L42.2723 22.1406H38.8848L40.5788 30.949Z" fill="black"/>
<path d="M33.8028 30.949H37.1909L35.4969 22.1406H32.1094L33.8028 30.949Z" fill="black"/>
<path d="M27.0271 30.949H30.4151L28.7211 22.1406H25.333L27.0271 30.949Z" fill="black"/>
<path d="M20.2517 30.949H23.6398L21.9457 22.1406H18.5576L20.2517 30.949Z" fill="black"/>
<path d="M13.4763 30.949H16.8638L15.1697 22.1406H11.7822L13.4763 30.949Z" fill="black"/>
</svg>
